<svg xmlns="http://www.w3.org/2000/svg" enable-background="new 0 0 64 64" viewBox="0 0 64 64" id="headhunter"><path d="M25.06 25.48c-.67 0-1.33-.16-1.94-.49-1.81-.97-2.61-2.8-2.89-3.63-.09-.01-.18-.04-.28-.08-.51-.22-.87-.82-1.1-1.82-.21-.95-.12-1.6.29-1.97.15-.14.31-.21.47-.25-.23-2.26-.34-5.65 4.07-6.41.92-.16 1.85-.16 2.76 0 4.41.76 4.3 4.14 4.07 6.41.16.04.32.11.46.25.41.38.5 1.02.29 1.97-.23 1-.58 1.6-1.1 1.82-.1.04-.19.07-.28.08-.28.83-1.08 2.66-2.88 3.63C26.39 25.32 25.73 25.48 25.06 25.48zM20.58 20.32c.07 0 .14.02.21.04.14.06.25.2.28.35.01.02.59 2.37 2.52 3.41.92.49 2.02.5 2.95 0 1.93-1.04 2.51-3.38 2.51-3.41.04-.15.14-.28.29-.34.14-.06.31-.05.44.03.06-.06.32-.25.52-1.16.15-.68.07-.97 0-1.03-.04-.04-.17-.02-.2-.01-.16.05-.33.02-.46-.09-.13-.11-.2-.27-.18-.43l.02-.14c.25-2.27.56-5.09-3.21-5.74-.8-.14-1.62-.14-2.43 0-3.77.65-3.46 3.47-3.21 5.73l.02.15c.02.17-.05.33-.18.43-.13.11-.3.14-.46.09-.05-.01-.16-.02-.2.02-.06.06-.15.35 0 1.03.22.98.5 1.12.53 1.14C20.42 20.34 20.5 20.32 20.58 20.32zM25.06 28.73c-.08 0-.17-.02-.24-.06L21 26.51c-.24-.13-.32-.43-.19-.67.14-.24.43-.32.67-.19l3.58 2.02 3.59-2.02c.24-.13.54-.05.67.19.13.24.05.54-.19.67l-3.83 2.15C25.22 28.71 25.14 28.73 25.06 28.73z"></path><path d="M35.43,36.11H14.69c-0.14,0-0.27-0.06-0.36-0.15c-0.09-0.1-0.14-0.23-0.13-0.37c0.02-0.25,0.03-0.79,0.05-1.44
								c0.06-1.9,0.12-3.4,0.21-3.83c0.59-2.97,5.72-4.29,5.94-4.35c0.34-0.13,0.64-0.32,0.86-0.55c0.29-0.3,0.48-0.93,0.52-1.69
								c0.01-0.27,0.25-0.49,0.51-0.47c0.27,0.01,0.48,0.24,0.47,0.52c-0.03,0.59-0.17,1.69-0.79,2.33c-0.32,0.34-0.74,0.6-1.28,0.8
								c-1.37,0.35-4.87,1.64-5.26,3.6c-0.08,0.39-0.15,2.44-0.19,3.67c-0.01,0.35-0.02,0.68-0.03,0.94h19.71
								c-0.01-0.3-0.03-0.67-0.04-1.08c-0.04-1.25-0.11-3.15-0.18-3.52c-0.39-1.97-3.9-3.26-5.21-3.59c-0.58-0.21-1-0.48-1.32-0.79
								c-0.58-0.61-0.76-1.57-0.8-2.27l0.49-0.1h0.49v0.07c0.05,0.72,0.24,1.3,0.52,1.61c0.21,0.21,0.52,0.4,0.91,0.54
								c0.16,0.04,5.29,1.36,5.88,4.33c0.08,0.42,0.14,1.85,0.2,3.68c0.02,0.7,0.05,1.31,0.06,1.58c0.01,0.14-0.04,0.27-0.13,0.37
								C35.7,36.05,35.57,36.11,35.43,36.11z"></path><path d="M31.82 36.11c-.27 0-.49-.22-.49-.49v-3.9c0-.27.22-.49.49-.49.27 0 .49.22.49.49v3.9C32.31 35.88 32.09 36.11 31.82 36.11zM18.3 36.11c-.27 0-.49-.22-.49-.49v-3.9c0-.27.22-.49.49-.49s.49.22.49.49v3.9C18.79 35.88 18.57 36.11 18.3 36.11z"></path><g><path d="M27.28,16.84c-2.54,0-4.17-0.88-4.87-1.36c-0.83,0.8-1.84,1.11-2.28,1.21c-0.27,0.06-0.53-0.1-0.59-0.37
					c-0.06-0.26,0.1-0.53,0.37-0.59c0.4-0.09,1.39-0.4,2.07-1.23c0.09-0.1,0.21-0.17,0.35-0.18c0.13-0.01,0.27,0.04,0.37,0.13
					c0.1,0.09,2.52,2.21,7.3,1.07c0.27-0.06,0.53,0.1,0.59,0.36c0.06,0.26-0.1,0.53-0.36,0.59C29.13,16.73,28.15,16.84,27.28,16.84z
					"></path></g><g><path d="M25.06,44.62c-5.23,0-10.14-2.04-13.84-5.73c-3.7-3.7-5.73-8.61-5.73-13.84c0-5.23,2.04-10.14,5.73-13.84
			c3.7-3.7,8.61-5.73,13.84-5.73S35.2,7.51,38.9,11.21l0,0c7.63,7.63,7.63,20.05,0,27.68C35.2,42.59,30.29,44.62,25.06,44.62z
			 M25.06,6.46c-4.96,0-9.63,1.93-13.14,5.44c-3.51,3.51-5.45,8.18-5.45,13.14c0,4.97,1.93,9.63,5.45,13.14
			c3.51,3.51,8.18,5.44,13.14,5.44c4.97,0,9.63-1.93,13.15-5.44c7.25-7.25,7.25-19.04,0-26.29C34.69,8.4,30.03,6.46,25.06,6.46z"></path></g><g><path d="M25.06,50.1c-6.42,0-12.83-2.44-17.72-7.33C2.61,38.04,0,31.74,0,25.05c0-6.69,2.61-12.99,7.34-17.72
			c9.77-9.77,25.67-9.77,35.44,0c4.73,4.73,7.34,11.03,7.34,17.72c0,6.69-2.61,12.99-7.34,17.72C37.89,47.65,31.48,50.1,25.06,50.1z
			 M25.06,0.98c-6.43,0-12.48,2.5-17.02,7.05c-4.55,4.55-7.05,10.59-7.05,17.02c0,6.43,2.5,12.48,7.05,17.02
			c4.55,4.55,10.59,7.05,17.02,7.05c6.43,0,12.48-2.5,17.02-7.05c4.55-4.55,7.05-10.59,7.05-17.02c0-6.43-2.5-12.48-7.05-17.02
			C37.54,3.48,31.49,0.98,25.06,0.98z"></path></g><g><path d="M58.27,64c-0.08,0-0.15,0-0.23,0c-1.59-0.06-3.1-0.8-4.13-2.01L39.44,45.01c-0.18-0.21-0.15-0.52,0.06-0.69
				c0.21-0.18,0.52-0.15,0.69,0.06l14.47,16.97c0.87,1.02,2.08,1.61,3.42,1.67c1.34,0.05,2.62-0.45,3.55-1.39
				c0.94-0.94,1.44-2.2,1.38-3.54c-0.05-1.34-0.64-2.56-1.66-3.43L44.38,40.18c-0.21-0.18-0.23-0.49-0.06-0.69
				c0.18-0.21,0.49-0.23,0.69-0.06L61.99,53.9c1.21,1.04,1.94,2.55,2.01,4.14c0.06,1.59-0.55,3.15-1.67,4.27
				C61.25,63.39,59.78,64,58.27,64z"></path></g></svg>