<svg width="73" height="73" viewBox="0 0 73 73" fill="none" xmlns="http://www.w3.org/2000/svg">
<circle cx="36.5" cy="36.5" r="35.5" stroke="black" stroke-width="2"/>
<circle cx="36.5" cy="36.5" r="31" stroke="black"/>
<path d="M20.0297 36.6411V50H18.3934V22.5311H20.0297V32.6576H20.1907C20.6735 31.5846 21.4425 30.7307 22.4976 30.0958C23.5617 29.452 24.8359 29.1301 26.3202 29.1301C27.7061 29.1301 28.9267 29.4252 29.9818 30.0153C31.0369 30.5965 31.8596 31.4326 32.4497 32.5235C33.0488 33.6054 33.3483 34.902 33.3483 36.4131V50H31.7254V36.4802C31.7254 34.7187 31.2023 33.3059 30.1562 32.2418C29.11 31.1777 27.7285 30.6457 26.0117 30.6457C24.8582 30.6457 23.8299 30.8961 22.9268 31.3968C22.0237 31.8976 21.3128 32.5995 20.7942 33.5026C20.2845 34.3968 20.0297 35.4429 20.0297 36.6411ZM41.7547 36.6411V50H40.1183V22.5311H41.7547V32.6576H41.9156C42.3985 31.5846 43.1674 30.7307 44.2226 30.0958C45.2866 29.452 46.5608 29.1301 48.0451 29.1301C49.4311 29.1301 50.6516 29.4252 51.7068 30.0153C52.7619 30.5965 53.5845 31.4326 54.1747 32.5235C54.7738 33.6054 55.0733 34.902 55.0733 36.4131V50H53.4504V36.4802C53.4504 34.7187 52.9273 33.3059 51.8811 32.2418C50.8349 31.1777 49.4534 30.6457 47.7366 30.6457C46.5832 30.6457 45.5549 30.8961 44.6518 31.3968C43.7486 31.8976 43.0378 32.5995 42.5192 33.5026C42.0095 34.3968 41.7547 35.4429 41.7547 36.6411Z" fill="black"/>
</svg>
